<?xml version="1.0" standalone="no"?>
<!DOCTYPE svg PUBLIC "-//W3C//DTD SVG 20010904//EN"
 "http://www.w3.org/TR/2001/REC-SVG-20010904/DTD/svg10.dtd">
<svg version="1.0" xmlns="http://www.w3.org/2000/svg"
 width="4549.000000pt" height="1356.000000pt" viewBox="0 0 4549.000000 1356.000000"
 preserveAspectRatio="xMidYMid meet">

<g transform="translate(0.000000,1356.000000) scale(0.100000,-0.100000)"
fill="#ffffff" stroke="none">
<path d="M678 13343 l-208 -208 -2 -1130 -3 -1130 -32 -68 c-35 -74 -118 -164
-172 -186 l-31 -13 0 -1437 0 -1436 770 770 770 770 0 317 0 318 488 0 487 0
350 350 350 350 -838 0 -837 0 0 855 0 855 837 0 837 0 616 615 615 615 -1895
0 -1895 0 -207 -207z"/>
<path d="M24527 12902 l-647 -647 0 -2053 0 -2052 650 0 650 0 0 2700 c0 1485
-1 2700 -3 2700 -1 0 -293 -291 -650 -648z"/>
<path d="M3645 12000 l-450 -450 938 0 937 0 0 -2507 0 -2508 645 645 645 645
0 1862 0 1863 720 0 720 0 0 -2225 0 -2225 1620 0 1620 0 0 420 0 420 -970 0
-970 0 0 775 0 775 443 0 442 0 300 300 300 300 -743 0 -742 0 0 730 0 730
440 0 c364 0 446 -3 469 -14 37 -20 99 -89 107 -121 l6 -25 342 0 341 0 530
530 530 530 -3885 0 -3885 0 -450 -450z"/>
<path d="M11813 11998 l-453 -453 0 -2505 0 -2505 725 725 725 725 0 356 0
357 -28 10 c-42 15 -88 58 -111 105 -20 41 -21 60 -21 328 l0 284 332 332 333
333 -333 0 -332 0 0 730 0 730 665 0 665 0 0 -550 c0 -540 0 -552 -21 -593
-14 -27 -172 -194 -457 -479 l-437 -438 297 0 c268 0 302 -2 359 -20 119 -37
203 -123 241 -242 17 -57 18 -124 18 -1376 l0 -1317 650 650 650 650 0 756 c0
720 -1 759 -20 833 -28 109 -63 169 -150 257 -83 84 -165 131 -261 151 -33 7
-59 15 -59 18 0 3 92 97 205 210 113 113 219 225 234 250 16 25 34 70 41 100
8 40 10 296 8 935 l-3 880 -24 49 c-14 27 -41 66 -61 86 -20 20 -59 47 -86 61
l-49 24 -1395 3 -1395 2 -452 -452z"/>
<path d="M15600 9493 l0 -2958 650 650 650 650 2 906 3 906 1030 -1274 1029
-1273 278 0 278 0 0 2675 0 2675 -645 0 -645 0 -2 -1273 -3 -1274 -1030 1274
-1029 1273 -283 0 -283 0 0 -2957z"/>
<path d="M21325 12438 c-8 -22 -1515 -5328 -1515 -5333 0 -3 290 -5 644 -5
l644 0 14 48 c8 26 176 617 373 1314 198 697 362 1268 365 1268 3 0 167 -571
365 -1268 197 -697 365 -1288 373 -1314 l14 -48 2571 0 2572 0 520 520 520
520 -796 0 -795 0 -13 -36 c-17 -47 -74 -110 -125 -137 l-41 -22 -1726 -3
-1725 -2 -640 2252 -641 2253 -477 3 c-376 2 -477 0 -481 -10z"/>
<path d="M885 7980 l-880 -880 2373 0 2372 0 0 420 0 420 -1490 0 -1490 0 -2
460 -3 460 -880 -880z"/>
<path d="M38293 7428 l-643 -643 -2 -1276 -3 -1276 -1030 1274 -1029 1273
-283 0 -283 0 0 -2957 0 -2958 650 650 650 650 2 906 3 906 1030 -1274 1029
-1273 278 0 278 0 0 3320 c0 1826 -1 3320 -3 3320 -1 0 -291 -289 -644 -642z"/>
<path d="M16063 6328 l-453 -453 0 -2935 0 -2935 725 725 725 725 0 356 0 357
-28 10 c-42 15 -88 58 -111 105 -21 43 -21 55 -21 758 l0 714 332 332 333 333
-333 0 -332 0 0 730 0 730 665 0 665 0 0 -550 c0 -540 0 -552 -21 -593 -14
-27 -172 -194 -457 -479 l-437 -438 297 0 c268 0 302 -2 359 -20 119 -37 203
-123 241 -242 17 -57 18 -124 18 -1376 l0 -1317 650 650 650 650 0 756 c0 720
-1 759 -20 833 -28 109 -63 169 -150 257 -83 84 -165 131 -261 151 -33 7 -59
15 -59 18 0 3 92 97 205 210 113 113 219 225 234 250 16 25 34 70 41 100 8 40
10 296 8 935 l-3 880 -24 49 c-31 63 -84 116 -147 147 l-49 24 -1395 3 -1395
2 -452 -452z"/>
<path d="M19830 4105 l0 -2675 1620 0 1620 0 0 420 0 420 -970 0 -970 0 0 775
0 775 443 0 442 0 300 300 300 300 -743 0 -742 0 0 730 0 730 1380 0 1380 0 0
-2937 0 -2938 645 645 645 645 0 2292 0 2293 185 0 c142 0 193 -3 214 -14 37
-20 99 -89 107 -121 l6 -25 337 0 336 0 530 530 530 530 -3798 0 -3797 0 0
-2675z"/>
<path d="M29613 6328 l-453 -453 -2 -1680 -3 -1680 -25 -50 c-31 -64 -91 -124
-155 -155 l-50 -25 -542 -3 -543 -3 0 2248 0 2248 -650 -650 -650 -650 2
-1910 3 -1910 24 -49 c31 -63 84 -116 147 -147 l49 -24 1540 -3 c1722 -3 1614
-7 1770 68 147 71 252 178 321 325 68 146 64 19 64 2142 l0 1918 440 440 c242
242 440 443 440 447 0 5 -287 8 -638 8 l-637 0 -452 -452z"/>
<path d="M31233 6328 l-453 -453 0 -2505 0 -2505 725 725 725 725 0 356 0 357
-28 10 c-42 15 -88 58 -111 105 -20 41 -21 60 -21 328 l0 284 332 332 333 333
-333 0 -332 0 0 730 0 730 665 0 665 0 0 -550 c0 -540 0 -552 -21 -593 -14
-27 -172 -194 -457 -479 l-437 -438 297 0 c268 0 302 -2 359 -20 119 -37 203
-123 241 -242 17 -57 18 -124 18 -1376 l0 -1317 650 650 650 650 0 756 c0 720
-1 759 -20 833 -28 109 -63 169 -150 257 -83 84 -165 131 -261 151 -33 7 -59
15 -59 18 0 3 92 97 205 210 113 113 219 225 234 250 16 25 34 70 41 100 8 40
10 296 8 935 l-3 880 -24 49 c-31 63 -84 116 -147 147 l-49 24 -1395 3 -1395
2 -452 -452z"/>
<path d="M39747 4325 l-327 -336 0 -497 0 -497 635 635 635 635 0 -1355 0
-1355 -312 -312 c-172 -172 -314 -313 -315 -313 -2 0 -3 565 -3 1256 l0 1257
-320 -324 -319 -324 -1 -1122 0 -1123 2610 0 2611 0 279 247 280 248 0 880 0
880 145 150 144 150 1 268 c0 147 -2 267 -4 267 -3 0 -209 -205 -458 -455
l-453 -456 -5 -462 -5 -462 -33 -68 c-36 -74 -60 -96 -531 -516 -327 -293
-307 -286 -881 -286 -372 0 -422 2 -480 18 -160 45 -276 131 -334 249 l-36 71
0 307 0 307 282 247 c155 135 286 246 291 246 5 0 7 -56 5 -125 -2 -69 -2
-125 0 -125 2 0 13 9 25 21 12 11 266 239 565 506 l542 486 0 156 c0 179 -8
204 -80 241 -39 20 -53 21 -358 18 l-317 -3 -36 -25 c-75 -52 -238 -204 -260
-244 -23 -39 -24 -50 -27 -278 l-3 -237 -87 -78 c-48 -43 -112 -101 -142 -129
-30 -28 -73 -67 -95 -85 -22 -19 -102 -89 -178 -157 l-138 -124 3 568 3 569
24 45 c39 74 58 94 225 242 88 79 227 204 309 278 191 173 208 185 294 227
121 58 189 65 631 61 330 -4 396 -7 447 -21 153 -45 275 -138 331 -252 l29
-60 2 -310 2 -310 -280 -250 c-154 -137 -284 -252 -290 -253 -5 -2 -9 59 -9
152 0 86 -3 156 -6 156 -4 0 -50 -40 -103 -88 -53 -48 -305 -275 -561 -503
l-465 -415 2 -190 c3 -212 5 -219 79 -261 38 -22 47 -23 350 -23 l310 0 45 28
c71 46 254 217 272 255 14 30 17 72 17 269 l0 233 328 292 c198 177 450 415
640 605 l312 314 0 552 0 552 -2563 0 -2562 0 -328 -335z m1973 -2925 l0 -360
-230 0 -230 0 0 360 0 360 230 0 230 0 0 -360z"/>
</g>
</svg>
